<svg xmlns="http://www.w3.org/2000/svg"><symbol viewBox="0 0 500 136.5" id="icon-Tiffination"><title>Tiffination</title> <g> <path fill="#FEC83D" d="M94.3,1.8c-2.9,8.1-5.2,15-6.7,20.7c-1.1,3.9-2.1,5.9-3,5.9c-0.8,0-1.1-0.4-1.1-1.1c0-0.4,0.4-2,1.2-5
		c0.8-2.9,1.2-5.6,1.2-8c0-4.8-2.2-7.7-6.6-8.8c-1.8-0.5-4.8-0.7-9.1-0.7c-2.6,0-5.1,0.1-7.3,0.3L30.2,86.3c-0.8,1.9-1.4,3.5-2,4.9
		c-0.6,1.4-0.9,2.3-0.9,2.7c0,2.2,3,3.2,9,3.2c0.8,0,1.3,0.3,1.3,0.8c0,1-0.8,1.5-2.4,1.5c-0.5,0-1.7,0-3.7-0.1
		c-3.9-0.2-8.6-0.3-13.9-0.3c-3.5,0-7.2,0.1-11.1,0.2c-1.3,0.1-3,0.2-4.9,0.2c-1,0-1.5-0.2-1.5-0.7c0-1,0.9-1.5,2.8-1.5
		c0.3,0,0.7,0,1.3,0h1.4c3.5,0,5.8-0.6,7.1-1.8c1.3-1.2,3-4.7,5.3-10.4L49.6,4.8H44c-9.7,0-16.8,2.2-21.5,6.6
		c-2.7,2.5-6,7.4-9.8,14.8c-0.6,1.1-1.2,1.7-2,1.7c-0.5,0-0.7-0.3-0.7-0.8c0-0.3,0.1-0.8,0.4-1.4l2.1-4.8c1-2.3,2.6-5.7,4.6-10.3
		c1.2-2.4,2.6-5.2,4.1-8.6c3.2,0.3,14.9,0.4,35.1,0.4C67.6,2.2,80.3,2.1,94.3,1.8z"/> <path fill="#FEC83D" d="M82.2,39.8c0,0.3-0.2,0.8-0.7,1.7c-0.7,1.1-1.7,3.4-3.2,6.9L62.1,85.2c-2.2,5-3.2,8-3.2,9.3
		c0,2.5,1.3,3.8,3.9,3.8c1.8,0,3.8-0.6,6.1-1.9c2.3-1.2,4.1-2.7,5.3-4.5c0.8-1.1,1.5-1.7,2-1.7c0.6,0,0.8,0.3,0.8,0.8
		c0,1.1-1.3,2.8-3.9,5c-3.9,3.3-8.4,5-13.4,5c-3.3,0-6-0.8-8.1-2.5c-2.1-1.7-3.2-3.8-3.2-6.5c0-2.3,1.2-6.1,3.5-11.4l14.6-32.5
		c0.5-1.6,1-2.8,1.7-3.6c0.3-0.4,0.4-0.7,0.4-1c0-0.8-2.1-1.4-6.2-1.7c-0.8-0.2-1.1-0.5-1.1-1c0-0.8,0.4-1.3,1.1-1.3
		c0.1,0,0.8,0.1,2.1,0.3c1.3,0.2,3.4,0.3,6.3,0.3c3.9,0,6.7-0.3,8.3-1c0.9-0.4,1.6-0.6,2-0.6C81.9,38.7,82.2,39,82.2,39.8z"/> <path fill="#FEC83D" d="M174.9,10.5c0,1,0.4,1.9,1.3,2.7c0.9,0.8,1.9,1.2,3.2,1.2c3.5,0,5.2-1.8,5.2-5.5c0-2.7-1.1-4.9-3.4-6.5
		c-2.3-1.6-5.3-2.5-9.1-2.5c-8.3,0-15.2,3.4-20.9,10.1c0-0.4,0.1-0.7,0.1-1.1c0-2.7-1.1-4.9-3.4-6.5c-2.3-1.6-5.3-2.5-9.1-2.5
		c-9,0-16.4,4-22.4,11.9c-3.6,4.9-8.2,14-13.8,27.3h-2h-5.1c-3.2,0-4.9,0-5.1,0c-2.3,0.3-3.5,1.1-3.5,2.4c0,0.7,0.6,1.1,1.7,1.1
		c0.9,0,1.8-0.2,2.5-0.6h7h3.2l-21.2,60.6c-4.4,12.5-8,20.7-10.7,24.4c-3.5,4.7-7.6,7.1-12.5,7.1c-2.8,0-4.2-1-4.2-3.1
		c0-0.6,0.3-1.2,0.8-1.9c0.9-1.2,1.4-2.2,1.4-3c0-2.4-1.4-3.6-4.2-3.6c-4.1,0-6.2,1.9-6.2,5.8c0,5.3,4,8,12,8
		c3.9,0,7.3-0.8,10.2-2.3c2.9-1.5,6-4.2,9.3-8.1c8.3-9.6,16.9-26.4,25.7-50.5l12.2-33.5h20.7l-21.2,60.6c-4.4,12.5-8,20.7-10.7,24.4
		c-3.5,4.7-7.6,7.1-12.5,7.1c-2.8,0-4.2-1-4.2-3.1c0-0.6,0.3-1.2,0.8-1.9c0.9-1.2,1.4-2.2,1.4-3c0-2.4-1.4-3.6-4.2-3.6
		c-4.1,0-6.2,1.9-6.2,5.8c0,5.3,4,8,12,8c3.9,0,7.3-0.8,10.2-2.3c2.9-1.5,6-4.2,9.3-8.1c8.3-9.6,16.9-26.4,25.7-50.5l12.2-33.5
		c0,0,17.2-0.1,17.4-0.1c3.1,0.3,4.6,0.8,4.6,1.5c0,0.3-0.1,0.6-0.4,1c-0.7,0.8-1.2,2.1-1.7,3.6l-14.6,32.5c-2.3,5.2-3.5,9-3.5,11.4
		c0,2.6,1.1,4.8,3.2,6.5c2.1,1.7,4.8,2.5,8.1,2.5c5,0,9.4-1.7,13.4-5c2.6-2.2,3.9-3.9,3.9-5c0-0.6-0.3-0.8-0.8-0.8
		c-0.5,0-1.1,0.6-2,1.7c-1.2,1.8-3,3.2-5.3,4.5c-2.3,1.2-4.3,1.9-6.1,1.9c-2.6,0-3.9-1.3-3.9-3.8c0-1.2,1.1-4.3,3.2-9.3l16.2-36.9
		c1.5-3.5,2.6-5.7,3.2-6.9c0.5-0.8,0.7-1.4,0.7-1.7c0-0.7-0.3-1.1-1-1.1c-0.4,0-17,0.6-17.7,0.6c-0.8,0-1.4,0-1.8,0H148l3.8-10.6
		c3.8-10.7,7-17.9,9.6-21.4c2.5-3.5,5.9-5.3,10-5.3c3.9,0,5.9,1.2,5.9,3.5c0,0.5-0.2,1.1-0.6,1.8C175.5,8.7,174.9,9.8,174.9,10.5z
		 M135.9,39.2h-2h-3c-0.8,0-1.4,0-1.8,0h-0.3h-5.1h-9.1l3.8-10.6c3.8-10.7,7-17.9,9.6-21.4c2.5-3.5,5.9-5.3,10-5.3
		c3.9,0,5.9,1.2,5.9,3.5c0,0.5-0.2,1.1-0.6,1.8c-1.2,1.4-1.8,2.5-1.8,3.2c0,1,0.4,1.9,1.3,2.7c0.9,0.8,1.9,1.2,3.2,1.2
		c0.8,0,1.5-0.1,2.1-0.3C144.9,19.4,140.8,27.7,135.9,39.2z"/> <path fill="#FEC83D" d="M243.7,49.8c0,2.3-1.2,6.2-3.7,11.7l-11.4,25.9c-1.3,3-2,5-2,6.1c0,2,1.1,3,3.3,3c2.7,0,6.6-2.2,11.7-6.5
		c0.5-0.3,0.9-0.4,1.1-0.4c0.6,0,0.9,0.2,0.9,0.7c0,1.1-1.6,2.8-4.7,4.9c-4.3,2.9-8.8,4.4-13.6,4.4c-2.9,0-5.3-0.6-7.2-1.9
		c-1.9-1.3-2.8-2.9-2.8-4.9c0-1.6,0.9-4.4,2.7-8.5L229.2,59c2.7-6.1,4.1-10.3,4.1-12.4c0-3.2-1.6-4.8-4.9-4.8
		c-4.3,0-9.4,3.1-15.2,9.3c-4.4,4.7-8.4,11.2-12.1,19.7l-11.5,26.7c-0.5,1.4-1.1,2.1-1.8,2.1c-0.2,0-1.2,0-3.1,0c-0.3,0-0.8,0-1.7,0
		c-0.8,0-2,0-3.8,0c-0.3,0-0.6,0-1,0c-0.7,0-1-0.2-1-0.7c0-0.2,0.1-0.5,0.4-0.8l1-2.1l21.5-51.5c0.3-0.5,0.5-0.9,0.7-1.3
		c-0.1-0.7-1.3-1-3.5-1.1c-2.8-0.1-4.2-0.6-4.2-1.5c0-0.7,0.5-1,1.5-1c0.7,0,1.7,0.1,3.1,0.3c1.4,0.2,2.5,0.3,3.2,0.3
		c5.1,0,8.4-0.4,10-1.1c0.7-0.3,1.1-0.4,1.3-0.4c0.6,0,0.8,0.3,0.8,0.8c0,0.3,0,0.5-0.1,0.7l-5.2,13.2c0.7-0.9,1.8-2.1,3.2-3.6
		c6.9-7.5,13.6-11.2,20.1-11.2c3.7,0,6.8,1.1,9.1,3.2C242.6,43.8,243.7,46.5,243.7,49.8z"/> </g> <g> <path fill="#F68C2F" d="M314.7,39.8c0,0.3-0.4,1.3-1.1,2.9l-18.6,42c-1.8,4-2.7,7.1-2.7,9.2c0,2.4,1.2,3.6,3.7,3.6
		c3.7,0,7.3-2.5,11-7.5c0.7-1,1.3-1.5,1.7-1.5c0.4,0,0.6,0.2,0.6,0.6c0,1-1,2.7-3.1,4.9c-4.1,4.4-9,6.6-14.8,6.6
		c-2.9,0-5.3-0.7-7.1-2.1c-1.8-1.4-2.7-3.2-2.7-5.5c0-1.4,0.3-3,1-4.9c-5.9,8.6-12.7,12.9-20.5,12.9c-4.9,0-8.9-1.6-12-4.7
		c-3.1-3.1-4.6-7.1-4.6-12c0-5.3,1.8-11.2,5.3-17.5c3.6-6.4,8.3-12.2,14.2-17.4c8.1-7.1,15.5-10.7,22.2-10.7c7,0,11,3.4,11.8,10.1
		l3.5-7.5c0.7-1.5,1.4-2.2,2-2.2c0.2,0,0.7,0.1,1.7,0.3c0.9,0.2,1.6,0.3,2,0.3c2.1,0,3.7-0.2,4.8-0.7c0.4-0.2,0.7-0.3,1-0.3
		C314.4,38.8,314.7,39.1,314.7,39.8z M297,51.4c0-2.9-0.9-5.2-2.6-7c-1.7-1.8-4-2.7-6.7-2.7c-4.7,0-9.2,2.8-13.5,8.3
		c-5,6.2-9,12.8-12,19.8c-3,6.9-4.5,13-4.5,18.3c0,6.3,2.6,9.5,7.9,9.5c3,0,6.3-1.6,9.8-4.9c3.5-3.3,6.4-7.4,8.8-12.3l11-23.5
		C296.4,54.3,297,52.4,297,51.4z"/> <g> <path fill="#F68C2F" d="M376.8,38.7c-0.4,0-1,0.2-2,0.6c-1.6,0.7-4.4,1-8.3,1c-2.9,0-5-0.1-6.3-0.3c-1.3-0.2-12.2,0-12.2,0h-3.4
			l3.1-6.7l1.5-3.3c0-0.4-0.2-0.6-0.7-0.6c-0.3,0-0.6,0.1-1,0.3c-2,0.9-3.5,1.3-4.5,1.3c-0.6,0-1.3-0.1-2.3-0.2
			c-1-0.1-1.7-0.2-2.2-0.2s-1.1,1-2,3.1l-2.4,6c-1.2,0.1-2.5,0.1-3.8,0.1c-1,0-1.8,0-2.2,0.1h-1.3c-1.3,0-2,0.6-2,1.7
			c0,0.6,0.8,0.9,2.4,0.9h5.8L314.7,82c-2.2,4.6-3.2,7.7-3.2,9.4c0,2.6,1.1,4.8,3.2,6.5c2.1,1.7,4.8,2.5,8.2,2.5
			c5,0,9.2-1.5,12.8-4.6c3.1-2.7,4.6-4.7,4.6-5.9c0-0.7-0.4-1-1.1-1c-0.4,0-0.9,0.5-1.7,1.4c-3.3,4.4-7,6.6-11.2,6.6
			c-2.9,0-4.4-1-4.4-3c0-1.2,1-4.1,3.1-8.7l19-42.6h2.5h5.3c2.9-0.1,5.9-0.8,6.3-0.7c4.1,0.3,6.2,0.8,6.2,1.7c0,0.3-0.1,0.6-0.4,1
			c-0.7,0.8-1.2,2.1-1.7,3.6l-14.6,32.5c-2.3,5.2-3.5,9-3.5,11.4c0,2.6,1.1,4.8,3.2,6.5c2.1,1.7,4.8,2.5,8.1,2.5c5,0,9.4-1.7,13.4-5
			c2.6-2.2,3.9-3.9,3.9-5c0-0.6-0.3-0.8-0.8-0.8c-0.5,0-1.1,0.6-2,1.7c-1.2,1.8-3,3.2-5.3,4.5c-2.3,1.2-4.3,1.9-6.1,1.9
			c-2.6,0-3.9-1.3-3.9-3.8c0-1.2,1.1-4.3,3.2-9.3l16.2-36.9c1.5-3.5,2.6-5.7,3.2-6.9c0.5-0.8,0.7-1.4,0.7-1.7
			C377.8,39,377.5,38.7,376.8,38.7z"/> <path fill="#F68C2F" d="M382,7.5c-4.3,0-6.5,1.9-6.5,5.8c0,1.8,0.6,3.3,1.8,4.4c1.2,1.2,2.8,1.8,4.6,1.8c3.7,0,5.5-2,5.5-5.9
			C387.5,9.5,385.7,7.5,382,7.5z"/> </g> <path fill="#F68C2F" d="M436.9,61.6c0,11-5,20.9-15,29.7c-7.9,6.9-16.1,10.4-24.6,10.4c-5.8,0-10.6-2-14.3-6
		c-3.7-4-5.6-9.2-5.6-15.6c0-5.4,1.5-11,4.6-16.7c3.1-5.7,7.2-10.6,12.4-14.6c8.1-6.3,15.8-9.4,23.3-9.4c5.7,0,10.4,2.1,13.9,6.2
		C435.1,49.5,436.9,54.9,436.9,61.6z M426,52.4c0-7.1-3.2-10.7-9.6-10.7c-7.8,0-14.5,5.6-20.2,16.7c-5.4,10.7-8.2,20.7-8.2,30.1
		c0,7,3.1,10.5,9.4,10.5c7.9,0,14.4-5.1,19.7-15.2C423.1,72.5,426,62,426,52.4z"/> <path fill="#F68C2F" d="M500,49.8c0,2.3-1.2,6.2-3.7,11.7L485,87.4c-1.3,3-2,5-2,6.1c0,2,1.1,3,3.3,3c2.7,0,6.6-2.2,11.7-6.5
		c0.5-0.3,0.9-0.4,1.1-0.4c0.6,0,0.9,0.2,0.9,0.7c0,1.1-1.6,2.8-4.7,4.9c-4.3,2.9-8.8,4.4-13.6,4.4c-2.9,0-5.3-0.6-7.2-1.9
		c-1.9-1.3-2.8-2.9-2.8-4.9c0-1.6,0.9-4.4,2.7-8.5L485.5,59c2.7-6.1,4.1-10.3,4.1-12.4c0-3.2-1.6-4.8-4.9-4.8
		c-4.3,0-9.4,3.1-15.2,9.3c-4.4,4.7-8.4,11.2-12.1,19.7l-11.5,26.7c-0.5,1.4-1.1,2.1-1.8,2.1c-0.2,0-1.2,0-3.1,0c-0.3,0-0.8,0-1.7,0
		c-0.8,0-2,0-3.8,0c-0.3,0-0.6,0-1,0c-0.7,0-1-0.2-1-0.7c0-0.2,0.1-0.5,0.4-0.8l1-2.1l21.5-51.5c0.3-0.5,0.5-0.9,0.7-1.3
		c-0.1-0.7-1.3-1-3.5-1.1c-2.8-0.1-4.2-0.6-4.2-1.5c0-0.7,0.5-1,1.5-1c0.7,0,1.7,0.1,3.1,0.3c1.4,0.2,2.5,0.3,3.2,0.3
		c5.1,0,8.4-0.4,10-1.1c0.7-0.3,1.1-0.4,1.3-0.4c0.6,0,0.8,0.3,0.8,0.8c0,0.3,0,0.5-0.1,0.7L464,53.3c0.7-0.9,1.8-2.1,3.2-3.6
		c6.9-7.5,13.6-11.2,20.1-11.2c3.7,0,6.8,1.1,9.1,3.2C498.8,43.8,500,46.5,500,49.8z"/> </g> </symbol></svg>